<!DOCTYPE svg PUBLIC "-//W3C//DTD SVG 1.1//EN" "http://www.w3.org/Graphics/SVG/1.1/DTD/svg11.dtd"[]><svg xmlns="http://www.w3.org/2000/svg" version="1.1" width="500" height="500"  style="shape-rendering:geometricPrecision; text-rendering:geometricPrecision; image-rendering:optimizeQuality; fill-rule:evenodd; clip-rule:evenodd" xmlns:xlink="http://www.w3.org/1999/xlink"><g><path style="opacity:0.127" fill="#f5ebfe" d="M 402.5,174.5 C 397.731,173.353 393.065,172.019 388.5,170.5C 388.5,168.167 388.5,165.833 388.5,163.5C 390.407,148.074 386.574,134.407 377,122.5C 371.137,117.645 364.971,113.145 358.5,109C 356.187,108.338 353.854,107.838 351.5,107.5C 349.723,106.4 347.723,105.566 345.5,105C 317.169,104.5 288.835,104.333 260.5,104.5C 260.433,105.959 260.766,107.292 261.5,108.5C 261.5,109.5 261.5,110.5 261.5,111.5C 258.997,108.658 258.997,105.824 261.5,103C 288.5,102.333 315.5,102.333 342.5,103C 377.936,109.954 393.603,131.454 389.5,167.5C 393.701,170.1 398.034,172.434 402.5,174.5 Z" /></g><g><path style="opacity:0.91" fill="#e1cbfd" d="M 351.5,107.5 C 336.024,106.865 320.524,106.531 305,106.5C 290.484,106.501 276.317,107.167 262.5,108.5C 262.167,108.5 261.833,108.5 261.5,108.5C 260.766,107.292 260.433,105.959 260.5,104.5C 288.835,104.333 317.169,104.5 345.5,105C 347.723,105.566 349.723,106.4 351.5,107.5 Z" /></g><g><path style="opacity:1" fill="#d6befe" d="M 351.5,107.5 C 353.854,107.838 356.187,108.338 358.5,109C 364.971,113.145 371.137,117.645 377,122.5C 386.574,134.407 390.407,148.074 388.5,163.5C 387.539,165.265 387.205,167.265 387.5,169.5C 377.13,166.991 366.797,164.324 356.5,161.5C 356.83,182.007 356.497,202.34 355.5,222.5C 355.831,201.66 355.497,180.993 354.5,160.5C 350.675,159.105 346.675,157.939 342.5,157C 324.503,155.08 306.503,155.08 288.5,157C 286.942,157.21 285.609,157.71 284.5,158.5C 283.292,159.234 281.959,159.567 280.5,159.5C 281.391,158.739 282.058,157.739 282.5,156.5C 281.768,153.803 280.934,151.136 280,148.5C 273.325,135.488 267.491,122.154 262.5,108.5C 276.317,107.167 290.484,106.501 305,106.5C 320.524,106.531 336.024,106.865 351.5,107.5 Z" /></g><g><path style="opacity:1" fill="#c0a1fe" d="M 354.5,160.5 C 331.259,157.335 307.926,156.668 284.5,158.5C 285.609,157.71 286.942,157.21 288.5,157C 306.503,155.08 324.503,155.08 342.5,157C 346.675,157.939 350.675,159.105 354.5,160.5 Z" /></g><g><path style="opacity:1" fill="#8b6ff9" d="M 354.5,160.5 C 354.5,180.833 354.5,201.167 354.5,221.5C 293.167,221.5 231.833,221.5 170.5,221.5C 170.737,220.209 170.404,219.209 169.5,218.5C 168.479,216.477 168.812,214.477 170.5,212.5C 178.96,205.879 187.293,199.046 195.5,192C 202.337,187.747 209.337,183.747 216.5,180C 220.973,177.554 225.64,175.721 230.5,174.5C 234.354,173.07 238.021,171.403 241.5,169.5C 245.767,168.744 249.767,167.411 253.5,165.5C 262.199,162.725 271.199,160.725 280.5,159.5C 281.959,159.567 283.292,159.234 284.5,158.5C 307.926,156.668 331.259,157.335 354.5,160.5 Z" /></g><g><path style="opacity:0.753" fill="#c4a1f8" d="M 253.5,165.5 C 249.767,167.411 245.767,168.744 241.5,169.5C 245.085,167.194 249.085,165.861 253.5,165.5 Z" /></g><g><path style="opacity:0.157" fill="#ecdafd" d="M 261.5,108.5 C 261.833,108.5 262.167,108.5 262.5,108.5C 267.491,122.154 273.325,135.488 280,148.5C 280.934,151.136 281.768,153.803 282.5,156.5C 282.058,157.739 281.391,158.739 280.5,159.5C 271.199,160.725 262.199,162.725 253.5,165.5C 249.085,165.861 245.085,167.194 241.5,169.5C 238.432,170.022 235.432,170.855 232.5,172C 231.244,172.417 230.577,173.25 230.5,174.5C 225.64,175.721 220.973,177.554 216.5,180C 209.337,183.747 202.337,187.747 195.5,192C 187.293,199.046 178.96,205.879 170.5,212.5C 168.761,213.434 167.095,213.434 165.5,212.5C 148.664,183.521 123.33,170.188 89.5,172.5C 100.065,171.175 110.732,171.508 121.5,173.5C 137.432,178.388 150.599,187.388 161,200.5C 162.579,203.994 164.413,207.327 166.5,210.5C 167.365,211.583 168.365,211.749 169.5,211C 201.523,182.324 238.856,164.324 281.5,157C 273.763,142.282 267.096,127.116 261.5,111.5C 261.5,110.5 261.5,109.5 261.5,108.5 Z" /></g><g><path style="opacity:0.773" fill="#be9cf8" d="M 241.5,169.5 C 238.021,171.403 234.354,173.07 230.5,174.5C 230.577,173.25 231.244,172.417 232.5,172C 235.432,170.855 238.432,170.022 241.5,169.5 Z" /></g><g><path style="opacity:1" fill="#d5befe" d="M 89.5,172.5 C 123.33,170.188 148.664,183.521 165.5,212.5C 167.095,213.434 168.761,213.434 170.5,212.5C 168.812,214.477 168.479,216.477 169.5,218.5C 169.5,219.833 169.5,221.167 169.5,222.5C 231.167,222.5 292.833,222.5 354.5,222.5C 293.669,223.499 232.669,223.832 171.5,223.5C 172.558,230.793 173.225,238.126 173.5,245.5C 124.664,245.168 75.9971,245.501 27.5,246.5C 26.4075,271.003 26.4075,295.67 27.5,320.5C 27.5,344.5 27.5,368.5 27.5,392.5C 32.5365,392.587 37.5365,392.254 42.5,391.5C 41.7375,392.268 40.7375,392.768 39.5,393C 35.1794,393.499 30.8461,393.666 26.5,393.5C 26.8313,365.328 26.498,337.328 25.5,309.5C 25.0873,283.472 25.5873,257.472 27,231.5C 30.202,225.089 32.8687,218.422 35,211.5C 37.9369,206.931 40.7703,202.264 43.5,197.5C 47.8193,194.058 51.8193,190.225 55.5,186C 61.5986,181.284 68.2653,177.618 75.5,175C 80.0033,173.22 84.67,172.387 89.5,172.5 Z" /></g><g><path style="opacity:0.999" fill="#e8d4fc" d="M 388.5,163.5 C 388.5,165.833 388.5,168.167 388.5,170.5C 393.065,172.019 397.731,173.353 402.5,174.5C 402.414,175.496 402.748,176.329 403.5,177C 410.881,181.029 418.547,184.696 426.5,188C 432.811,192.972 439.145,197.972 445.5,203C 447.081,203.707 448.581,204.54 450,205.5C 450.399,205.272 450.565,204.938 450.5,204.5C 452.167,205.833 453.833,207.167 455.5,208.5C 455.351,209.552 455.517,210.552 456,211.5C 468.18,221.439 478.346,232.939 486.5,246C 486.361,247.301 485.695,248.134 484.5,248.5C 484.5,247.5 484.5,246.5 484.5,245.5C 380.833,245.5 277.167,245.5 173.5,245.5C 173.225,238.126 172.558,230.793 171.5,223.5C 232.669,223.832 293.669,223.499 354.5,222.5C 354.833,222.5 355.167,222.5 355.5,222.5C 356.497,202.34 356.83,182.007 356.5,161.5C 366.797,164.324 377.13,166.991 387.5,169.5C 387.205,167.265 387.539,165.265 388.5,163.5 Z" /></g><g><path style="opacity:0.02" fill="#f4e8fe" d="M 402.5,174.5 C 420.326,181.675 436.326,191.675 450.5,204.5C 450.565,204.938 450.399,205.272 450,205.5C 448.581,204.54 447.081,203.707 445.5,203C 439.145,197.972 432.811,192.972 426.5,188C 418.547,184.696 410.881,181.029 403.5,177C 402.748,176.329 402.414,175.496 402.5,174.5 Z" /></g><g><path style="opacity:1" fill="#f3eafe" d="M 398.5,190.5 C 410.182,188.856 418.682,193.19 424,203.5C 428.586,220.741 422.086,230.741 404.5,233.5C 401.151,233.108 397.817,232.608 394.5,232C 380.066,221.097 378.733,208.763 390.5,195C 392.87,192.758 395.536,191.258 398.5,190.5 Z" /></g><g><path style="opacity:1" fill="#947cea" d="M 408.5,197.5 C 410.483,197.157 411.817,197.824 412.5,199.5C 410.847,199.34 409.514,198.674 408.5,197.5 Z" /></g><g><path style="opacity:1" fill="#0e0f15" d="M 407.5,197.5 C 407.833,197.5 408.167,197.5 408.5,197.5C 409.514,198.674 410.847,199.34 412.5,199.5C 417.929,204.608 419.929,210.941 418.5,218.5C 416.386,220.019 414.72,222.019 413.5,224.5C 410.512,225.161 407.512,225.828 404.5,226.5C 401.86,225.905 399.193,225.572 396.5,225.5C 395.167,223.5 393.5,221.833 391.5,220.5C 390.498,218.989 389.831,217.322 389.5,215.5C 389.833,203.833 395.833,197.833 407.5,197.5 Z" /></g><g><path style="opacity:1" fill="#7265c2" d="M 412.5,199.5 C 420.64,203.88 422.64,210.214 418.5,218.5C 419.929,210.941 417.929,204.608 412.5,199.5 Z" /></g><g><path style="opacity:1" fill="#4f48c6" d="M 407.5,197.5 C 395.833,197.833 389.833,203.833 389.5,215.5C 387.603,206.805 390.937,200.638 399.5,197C 402.367,196.199 405.034,196.366 407.5,197.5 Z" /></g><g><path style="opacity:1" fill="#9d7efb" d="M 354.5,160.5 C 355.497,180.993 355.831,201.66 355.5,222.5C 355.167,222.5 354.833,222.5 354.5,222.5C 292.833,222.5 231.167,222.5 169.5,222.5C 169.5,221.167 169.5,219.833 169.5,218.5C 170.404,219.209 170.737,220.209 170.5,221.5C 231.833,221.5 293.167,221.5 354.5,221.5C 354.5,201.167 354.5,180.833 354.5,160.5 Z" /></g><g><path style="opacity:1" fill="#7467d7" d="M 391.5,220.5 C 393.5,221.833 395.167,223.5 396.5,225.5C 393.833,224.833 392.167,223.167 391.5,220.5 Z" /></g><g><path style="opacity:1" fill="#7e73d8" d="M 418.5,218.5 C 417.753,221.362 416.086,223.362 413.5,224.5C 414.72,222.019 416.386,220.019 418.5,218.5 Z" /></g><g><path style="opacity:1" fill="#554d9c" d="M 413.5,224.5 C 412.653,225.966 411.32,226.8 409.5,227C 407.667,227.167 405.833,227.333 404,227.5C 401.134,227.7 398.634,227.033 396.5,225.5C 399.193,225.572 401.86,225.905 404.5,226.5C 407.512,225.828 410.512,225.161 413.5,224.5 Z" /></g><g><path style="opacity:1" fill="#d6befe" d="M 173.5,245.5 C 277.167,245.5 380.833,245.5 484.5,245.5C 484.5,246.5 484.5,247.5 484.5,248.5C 447.473,296.085 398.806,324.085 338.5,332.5C 336.282,350.887 326.282,362.72 308.5,368C 294.504,368.5 280.504,368.667 266.5,368.5C 272.366,356.561 277.033,344.228 280.5,331.5C 272.322,330.909 264.322,329.409 256.5,327C 251.81,324.573 246.81,322.907 241.5,322C 240.833,321.333 240.167,320.667 239.5,320C 236.471,319.461 233.471,318.794 230.5,318C 217.71,311.372 205.043,304.538 192.5,297.5C 184.901,292.2 177.901,286.2 171.5,279.5C 169.243,278.23 167.243,278.564 165.5,280.5C 171.141,269.596 173.808,257.929 173.5,245.5 Z" /></g><g><path style="opacity:1" fill="#5049f0" d="M 27.5,246.5 C 51.8333,246.5 76.1667,246.5 100.5,246.5C 100.5,270.833 100.5,295.167 100.5,319.5C 100.5,319.833 100.5,320.167 100.5,320.5C 76.1667,320.5 51.8333,320.5 27.5,320.5C 26.4075,295.67 26.4075,271.003 27.5,246.5 Z" /></g><g><path style="opacity:1" fill="#8c70f9" d="M 27.5,246.5 C 75.9971,245.501 124.664,245.168 173.5,245.5C 173.808,257.929 171.141,269.596 165.5,280.5C 152.824,302.474 133.824,315.474 108.5,319.5C 105.833,319.5 103.167,319.5 100.5,319.5C 100.5,295.167 100.5,270.833 100.5,246.5C 76.1667,246.5 51.8333,246.5 27.5,246.5 Z" /></g><g><path style="opacity:0.013" fill="#f4e5fe" d="M 121.5,173.5 C 110.732,171.508 100.065,171.175 89.5,172.5C 84.67,172.387 80.0033,173.22 75.5,175C 68.2653,177.618 61.5986,181.284 55.5,186C 51.8193,190.225 47.8193,194.058 43.5,197.5C 40.7703,202.264 37.9369,206.931 35,211.5C 32.8687,218.422 30.202,225.089 27,231.5C 25.5873,257.472 25.0873,283.472 25.5,309.5C 25.5,321.5 25.5,333.5 25.5,345.5C 24.3356,309.002 24.1689,272.336 25,235.5C 32.2627,199.115 54.096,177.281 90.5,170C 101.252,168.664 111.585,169.83 121.5,173.5 Z" /></g><g><path style="opacity:0.055" fill="#ead3fc" d="M 165.5,280.5 C 165.5,281.5 165.5,282.5 165.5,283.5C 160.547,293.297 153.547,301.463 144.5,308C 132.041,316.229 118.374,321.062 103.5,322.5C 100.277,353.815 84.61,376.315 56.5,390C 46.6466,394.283 36.48,395.783 26,394.5C 25.5001,378.17 25.3334,361.837 25.5,345.5C 25.5,333.5 25.5,321.5 25.5,309.5C 26.498,337.328 26.8313,365.328 26.5,393.5C 30.8461,393.666 35.1794,393.499 39.5,393C 40.7375,392.768 41.7375,392.268 42.5,391.5C 67.2994,385.554 85.1327,370.887 96,347.5C 97.0073,342.049 98.174,336.715 99.5,331.5C 101.082,328.124 101.749,324.458 101.5,320.5C 104.059,320.802 106.393,320.468 108.5,319.5C 133.824,315.474 152.824,302.474 165.5,280.5 Z" /></g><g><path style="opacity:1" fill="#8c70f9" d="M 27.5,320.5 C 51.8333,320.5 76.1667,320.5 100.5,320.5C 100.276,324.179 99.9422,327.846 99.5,331.5C 98.174,336.715 97.0073,342.049 96,347.5C 85.1327,370.887 67.2994,385.554 42.5,391.5C 37.5365,392.254 32.5365,392.587 27.5,392.5C 27.5,368.5 27.5,344.5 27.5,320.5 Z" /></g><g><path style="opacity:0.565" fill="#c6a6fa" d="M 100.5,319.5 C 103.167,319.5 105.833,319.5 108.5,319.5C 106.393,320.468 104.059,320.802 101.5,320.5C 101.749,324.458 101.082,328.124 99.5,331.5C 99.9422,327.846 100.276,324.179 100.5,320.5C 100.5,320.167 100.5,319.833 100.5,319.5 Z" /></g><g><path style="opacity:0.322" fill="#f0e2fe" d="M 455.5,208.5 C 467.513,219.015 478.346,230.682 488,243.5C 488.738,246.212 488.071,248.545 486,250.5C 465.464,276.362 440.63,297.196 411.5,313C 389.073,323.274 365.74,330.774 341.5,335.5C 339.337,343.492 335.837,350.826 331,357.5C 325.155,363.008 318.321,366.842 310.5,369C 295.555,370.6 280.555,370.934 265.5,370C 264.483,368.951 264.316,367.784 265,366.5C 269.504,355.65 274.004,344.816 278.5,334C 236.795,325.896 199.962,308.062 168,280.5C 167.148,281.571 166.315,282.571 165.5,283.5C 165.5,282.5 165.5,281.5 165.5,280.5C 167.243,278.564 169.243,278.23 171.5,279.5C 177.901,286.2 184.901,292.2 192.5,297.5C 205.043,304.538 217.71,311.372 230.5,318C 233.471,318.794 236.471,319.461 239.5,320C 240.167,320.667 240.833,321.333 241.5,322C 246.81,322.907 251.81,324.573 256.5,327C 264.322,329.409 272.322,330.909 280.5,331.5C 277.033,344.228 272.366,356.561 266.5,368.5C 280.504,368.667 294.504,368.5 308.5,368C 326.282,362.72 336.282,350.887 338.5,332.5C 398.806,324.085 447.473,296.085 484.5,248.5C 485.695,248.134 486.361,247.301 486.5,246C 478.346,232.939 468.18,221.439 456,211.5C 455.517,210.552 455.351,209.552 455.5,208.5 Z" /></g></svg>